<?xml version="1.0" encoding="utf-8"?>
<!-- Generator: Adobe Illustrator 22.1.0, SVG Export Plug-In . SVG Version: 6.00 Build 0)  -->
<svg version="1.1" xmlns="http://www.w3.org/2000/svg" xmlns:xlink="http://www.w3.org/1999/xlink" x="0px" y="0px"
	 viewBox="0 0 5000 5000" style="enable-background:new 0 0 5000 5000;" xml:space="preserve">
<style type="text/css">
	.st0{fill:#DDDDDD;}
	.st1{fill:#FFFFFF;}
	.st2{fill:#475DAD;}
	.st3{fill:#363F5E;}
</style>
<g id="Background">
	<rect class="st0" width="5000" height="5000"/>
</g>
<g id="Calendar">
	<g id="calendar">
		<path class="st1" d="M4000,2058.3v1706c0,233.7-189.5,423.2-423.2,423.2H1423.2c-233.7,0-423.2-189.5-423.2-423.2v-1706v-144h3000
			C4000,1914.3,4000,1824.6,4000,2058.3"/>
		<path class="st2" d="M3576.8,1187.5H1423.2c-233.7,0-423.2,189.5-423.2,423.2v476.6h3000v-476.6
			C4000,1377,3810.5,1187.5,3576.8,1187.5 M1625,1613.8c-69,0-125-56-125-125c0-69,56-125,125-125s125,56,125,125
			C1750,1557.9,1694,1613.8,1625,1613.8 M3375,1613.8c-69,0-125-56-125-125c0-69,56-125,125-125s125,56,125,125
			C3500,1557.9,3444,1613.8,3375,1613.8"/>
		<path class="st1" d="M1625,1368.8c32.1,0,62.2,12.5,84.9,35.1s35.1,52.8,35.1,84.9s-12.5,62.2-35.1,84.9s-52.8,35.1-84.9,35.1
			c-32.1,0-62.2-12.5-84.9-35.1s-35.1-52.8-35.1-84.9s12.5-62.2,35.1-84.9S1592.9,1368.8,1625,1368.8 M1625,1338.8
			c-82.8,0-150,67.2-150,150c0,82.8,67.2,150,150,150s150-67.2,150-150C1775,1406,1707.8,1338.8,1625,1338.8"/>
		<path class="st1" d="M3375,1368.8c32.1,0,62.2,12.5,84.9,35.1s35.1,52.8,35.1,84.9s-12.5,62.2-35.1,84.9s-52.8,35.1-84.9,35.1
			s-62.2-12.5-84.9-35.1c-22.7-22.7-35.1-52.8-35.1-84.9s12.5-62.2,35.1-84.9C3312.8,1381.3,3342.9,1368.8,3375,1368.8 M3375,1338.8
			c-82.8,0-150,67.2-150,150c0,82.8,67.2,150,150,150s150-67.2,150-150C3525,1406,3457.8,1338.8,3375,1338.8"/>
		<path class="st3" d="M1625,812.5L1625,812.5c-49.7,0-90,40.3-90,90v570c0,49.7,40.3,90,90,90s90-40.3,90-90v-570
			C1715,852.8,1674.7,812.5,1625,812.5"/>
		<path class="st3" d="M3375,812.5L3375,812.5c-49.7,0-90,40.3-90,90v570c0,49.7,40.3,90,90,90s90-40.3,90-90v-570
			C3465,852.8,3424.7,812.5,3375,812.5"/>
	</g>
	<g id="June">
		<path class="st1" d="M2148.8,1822.9c0,12.6-2.1,24.5-6.4,35.6s-10.8,20.6-19.5,28.4c-9.8,8.9-21.3,15.4-34.6,19.5
			s-28.6,6.3-45.9,6.3c-12.9,0-25-0.5-36.3-1.5s-21.3-2.4-29.9-4.2v-59h6.6c5.9,2.3,12,4.5,18.4,6.5c6.4,2,14.6,3,24.6,3
			c12.9,0,22.8-1.8,29.8-5.5c7-3.6,11.9-8.7,14.7-15.2c3-6.4,4.7-13.8,5-22.2c0.3-8.4,0.5-17.7,0.5-28v-116.6h-66.6v-52.7h139.6
			V1822.9z"/>
		<path class="st1" d="M2322.9,1914.3c-39.1,0-69.1-9.4-90.1-28.3c-21-18.9-31.5-46.5-31.5-82.8v-185.7h73v181.4
			c0,20.2,3.8,35.2,11.4,45.1c7.6,9.9,20,14.8,37.2,14.8c16.8,0,29.1-4.8,37-14.3c7.9-9.5,11.8-24.7,11.8-45.7v-181.4h73V1803
			c0,35.8-10.3,63.3-30.8,82.5C2393.5,1904.7,2363.1,1914.3,2322.9,1914.3z"/>
		<path class="st1" d="M2750,1908.3h-70.3l-112.1-202.7v202.7h-66.8v-290.8h89.6l92.8,166.6v-166.6h66.8V1908.3z"/>
		<path class="st1" d="M2809,1908.3v-290.8h196.7v55.5h-124v51h114.3v55.5h-114.3v73.4h124v55.5H2809z"/>
	</g>
	<g id="Number">
		<path class="st3" d="M2253.2,3780.1H1990v-720.5l2.6-118.4l4.2-129.5c-43.7,43.7-74.1,72.4-91.1,86l-143.1,115l-126.9-158.4
			l401.2-319.4h216.4V3780.1z"/>
		<polygon class="st3" points="2617,3780.1 3084.9,2758.4 2470.4,2758.4 2470.4,2536.2 3364.4,2536.2 3364.4,2702 2893,3780.1 		"/>
	</g>
</g>
</svg>
